# xmcd CD database file
# Copyright (C) 1995-1998 Ti Kan
#
# Track frame offsets:
#	150
#	15061
#	34440
#	47646
#	61355
#	75189
#	88517
#	96251
#	110740
#	122085
#	136428
#	148754
#	163337
#	175870
#	191179
#	204880
#	216279
#	234885
#	248127
#	262609
#
# Disc length: 3611 seconds
#
# Revision: 1
# Processed by: cddbd v1.4PL0 Copyright (c) Steve Scherf et al.
# Submitted via: CDex 1.30Release
#
DISCID=0e0e1914
DTITLE=Frank Sinatra - The Best Of Frank Sinatra
DYEAR=1900
DGENRE=Blues
TTITLE0=Blue Skies
TTITLE1=Stormy Weather
TTITLE2=Dolores
TTITLE3=Our Love Affair
TTITLE4=Dream
TTITLE5=Hear My Song Violetta
TTITLE6=Hot Time In Town Of Berlin
TTITLE7=Day By Day
TTITLE8=It's a Lovely Day Tomorrow
TTITLE9=With a Song In My Heart
TTITLE10=You And I
TTITLE11=Stardust
TTITLE12=Saturday Night
TTITLE13=Someone To Watch Over Me
TTITLE14=Whispering
TTITLE15=Don't Fence Me In
TTITLE16=Ol' Man River
TTITLE17=How About You?
TTITLE18=I'll Never Smile Again
TTITLE19=Somebody Loves Me
EXTD=ID3G:   0
EXTT0=
EXTT1=
EXTT2=
EXTT3=
EXTT4=
EXTT5=
EXTT6=
EXTT7=
EXTT8=
EXTT9=
EXTT10=
EXTT11=
EXTT12=
EXTT13=
EXTT14=
EXTT15=
EXTT16=
EXTT17=
EXTT18=
EXTT19=
PLAYORDER=
